# Blender 3.6.5
# www.blender.org
mtllib felgologo3d.mtl
o Cube
v -1.000000 -1.000000 1.000000
v -1.000000 1.000000 1.000000
v -1.000000 -1.000000 -1.000000
v -1.000000 1.000000 -1.000000
v 1.000000 -1.000000 1.000000
v 1.000000 1.000000 1.000000
v 1.000000 -1.000000 -1.000000
v 1.000000 1.000000 -1.000000
v -1.000000 8.765362 1.000000
v -1.000000 8.765362 -1.000000
v 1.000000 8.765362 -1.000000
v 1.000000 8.765362 1.000000
v -1.000000 1.000000 -1.000000
v 1.000000 1.000000 -1.000000
v -1.000000 8.765362 -1.000000
v 1.000000 8.765362 -1.000000
v -1.000000 4.882681 1.000000
v -1.000000 4.882681 -1.000000
v 1.000000 4.882681 1.000000
v 1.000000 4.882681 -1.000000
v -1.000000 6.824021 1.000000
v 1.000000 6.824021 1.000000
v -1.000000 6.824021 -1.000000
v 1.000000 6.824021 -1.000000
v -1.000000 2.941340 -1.000000
v 1.000000 2.941340 -1.000000
v -1.000000 2.941340 1.000000
v 1.000000 2.941340 1.000000
v -1.000000 8.765362 -3.029275
v 1.000000 8.765362 -3.029275
v -1.000000 6.824021 -3.029275
v 1.000000 6.824021 -3.029275
v 11.991631 8.834497 1.000000
v 15.006723 8.983562 1.000000
v 14.833007 8.859743 -1.000000
v 11.999793 8.840315 -1.000000
v 13.977582 -0.420604 -1.000000
v 11.287868 -0.458076 -1.000000
v 11.428771 -0.557811 -3.029275
v 14.098784 -0.506395 -3.029275
v -1.000000 -1.000000 1.000000
v -1.000000 1.000000 1.000000
v -1.000000 -1.000000 -1.000000
v -1.000000 1.000000 -1.000000
v 1.000000 -1.000000 1.000000
v 1.000000 1.000000 1.000000
v 1.000000 -1.000000 -1.000000
v 1.000000 1.000000 -1.000000
v -1.000000 8.765362 1.000000
v -1.000000 8.765362 -1.000000
v 1.000000 8.765362 -1.000000
v 1.000000 8.765362 1.000000
v -1.000000 1.000000 -1.000000
v 1.000000 1.000000 -1.000000
v -1.000000 8.765362 -1.000000
v 1.000000 8.765362 -1.000000
v -1.000000 4.882681 1.000000
v -1.000000 4.882681 -1.000000
v 1.000000 4.882681 1.000000
v 1.000000 4.882681 -1.000000
v -1.000000 6.824021 1.000000
v 1.000000 6.824021 1.000000
v -1.000000 6.824021 -1.000000
v 1.000000 6.824021 -1.000000
v -1.000000 2.941340 -1.000000
v 1.000000 2.941340 -1.000000
v -1.000000 2.941340 1.000000
v 1.000000 2.941340 1.000000
v -1.000000 8.765362 -3.029275
v 1.000000 8.765362 -3.029275
v -1.000000 6.824021 -3.029275
v 1.000000 6.824021 -3.029275
v 11.991631 8.834497 1.000000
v 15.006723 8.983562 1.000000
v 14.833007 8.859743 -1.000000
v 11.999793 8.840315 -1.000000
v 13.977582 -0.420604 -1.000000
v 11.287868 -0.458076 -1.000000
v 11.428771 -0.557811 -3.029275
v 14.098784 -0.506395 -3.029275
vn 1.0000 -0.0000 -0.0000
vn -0.0000 -0.0000 1.0000
vn 0.5804 -0.8143 -0.0000
vn -0.0000 -0.0000 -1.0000
vn -0.0000 1.0000 -0.0000
vn -0.0000 -1.0000 -0.0000
vn -1.0000 -0.0000 -0.0000
vn -0.5804 0.8143 -0.0000
vn -0.5777 -0.8162 -0.0000
vn 0.5777 0.8162 -0.0000
vn 0.0494 -0.9988 -0.0027
vn 0.0068 -0.9981 0.0612
vn -0.0192 0.9989 -0.0434
vn -0.0139 0.9986 -0.0500
vn -0.0494 0.9988 0.0027
vn -0.0068 0.9981 -0.0612
vn 0.0192 -0.9989 0.0434
vn 0.0139 -0.9986 0.0500
vt 0.375000 0.000000
vt 0.375000 0.250000
vt 0.625000 0.250000
vt 0.625000 0.000000
vt 0.375000 0.500000
vt 0.625000 0.500000
vt 0.625000 0.750000
vt 0.375000 0.750000
vt 0.375000 1.000000
vt 0.625000 1.000000
vt 0.125000 0.500000
vt 0.125000 0.750000
vt 0.875000 0.750000
vt 0.875000 0.500000
vt 0.000000 0.000000
s 0
f 1/1/1 3/2/1 4/3/1 2/4/1
f 3/2/2 7/5/2 8/6/2 4/3/2
f 8/6/3 36/6/3 33/7/3 6/7/3
f 5/8/4 1/9/4 2/10/4 6/7/4
f 3/11/5 1/12/5 5/8/5 7/5/5
f 23/3/1 10/3/1 9/4/1 21/4/1
f 11/6/6 12/7/6 9/13/6 10/14/6
f 21/10/4 9/10/4 12/7/4 22/7/4
f 10/14/6 29/14/6 30/6/6 11/6/6
f 22/7/7 12/7/7 11/6/7 24/6/7
f 7/5/2 35/5/2 36/6/2 8/6/2
f 6/7/4 33/7/4 34/8/4 5/8/4
f 5/8/8 34/8/8 35/5/8 7/5/8
f 28/7/7 19/7/7 20/6/7 26/6/7
f 26/6/2 20/6/2 18/3/2 25/3/2
f 27/10/4 17/10/4 19/7/4 28/7/4
f 25/3/1 18/3/1 17/4/1 27/4/1
f 19/7/7 22/7/7 24/6/7 20/6/7
f 20/6/2 24/6/2 23/3/2 18/3/2
f 17/10/4 21/10/4 22/7/4 19/7/4
f 18/3/1 23/3/1 21/4/1 17/4/1
f 4/3/1 25/3/1 27/4/1 2/4/1
f 2/10/4 27/10/4 28/7/4 6/7/4
f 8/6/2 26/6/2 25/3/2 4/3/2
f 6/7/7 28/7/7 26/6/7 8/6/7
f 32/6/2 30/6/2 29/3/2 31/3/2
f 23/3/1 31/3/1 29/3/1 10/3/1
f 24/6/5 32/6/5 31/3/5 23/3/5
f 30/6/9 40/6/9 37/6/9 11/6/9
f 32/6/2 39/6/2 40/6/2 30/6/2
f 11/6/4 37/6/4 38/6/4 24/6/4
f 24/6/10 38/6/10 39/6/10 32/6/10
f 33/7/11 36/6/11 34/8/11
f 35/5/12 34/8/12 36/6/12
f 40/6/13 39/6/13 37/6/13
f 38/6/14 37/6/14 39/6/14
f 41/1/7 42/4/7 44/3/7 43/2/7
f 43/2/4 44/3/4 48/6/4 47/5/4
f 48/6/8 46/7/8 73/7/8 76/6/8
f 45/8/2 46/7/2 42/10/2 41/9/2
f 43/11/6 47/5/6 45/8/6 41/12/6
f 63/3/7 61/4/7 49/4/7 50/3/7
f 51/6/5 50/14/5 49/13/5 52/7/5
f 61/10/2 62/7/2 52/7/2 49/10/2
f 50/14/5 51/6/5 70/6/5 69/14/5
f 62/7/1 64/6/1 51/6/1 52/7/1
f 47/5/4 48/6/4 76/6/4 75/5/4
f 46/7/2 45/8/2 74/8/2 73/7/2
f 45/8/3 47/5/3 75/5/3 74/8/3
f 68/7/1 66/6/1 60/6/1 59/7/1
f 66/6/4 65/3/4 58/3/4 60/6/4
f 67/10/2 68/7/2 59/7/2 57/10/2
f 65/3/7 67/4/7 57/4/7 58/3/7
f 59/7/1 60/6/1 64/6/1 62/7/1
f 60/6/4 58/3/4 63/3/4 64/6/4
f 57/10/2 59/7/2 62/7/2 61/10/2
f 58/3/7 57/4/7 61/4/7 63/3/7
f 44/3/7 42/4/7 67/4/7 65/3/7
f 42/10/2 46/7/2 68/7/2 67/10/2
f 48/6/4 44/3/4 65/3/4 66/6/4
f 46/7/1 48/6/1 66/6/1 68/7/1
f 72/6/4 71/3/4 69/3/4 70/6/4
f 63/3/7 50/3/7 69/3/7 71/3/7
f 64/6/6 63/3/6 71/3/6 72/6/6
f 70/6/10 51/6/10 77/6/10 80/6/10
f 72/6/4 70/6/4 80/6/4 79/6/4
f 51/6/2 64/6/2 78/6/2 77/6/2
f 64/6/9 72/6/9 79/6/9 78/6/9
f 73/7/15 74/8/15 76/6/15
f 75/5/16 76/6/16 74/8/16
f 80/6/17 77/6/17 79/6/17
f 78/6/18 79/6/18 77/6/18
f 11/15/5 16/15/5 56/15/5 51/15/5
f 8/15/5 14/15/5 54/15/5 48/15/5
f 10/15/5 15/15/5 55/15/5 50/15/5
f 4/15/5 13/15/5 53/15/5 44/15/5
